<?xml version="1.0" encoding="UTF-8" standalone="no"?>
<!DOCTYPE svg PUBLIC "-//W3C//DTD SVG 1.1//EN" "http://www.w3.org/Graphics/SVG/1.1/DTD/svg11.dtd">
<!-- Created with Vectornator (http://vectornator.io/) -->
<svg height="100%" stroke-miterlimit="10" style="fill-rule:nonzero;clip-rule:evenodd;stroke-linecap:round;stroke-linejoin:round;" version="1.1" viewBox="0 0 4266.36 2628.03" width="100%" xml:space="preserve" xmlns="http://www.w3.org/2000/svg" xmlns:xlink="http://www.w3.org/1999/xlink">
<defs/>
<g id="Pyramide">
<path d="M1643.85 2365.78L2425.43 2365.78L2035.52 1674.31L1643.85 2365.78Z" fill="#000000" fill-rule="nonzero" opacity="1" stroke="none"/>
<path d="M2835.44 1655.97L2053.86 1655.97L2443.77 2347.29L2835.44 1655.97Z" fill="none" opacity="1" stroke="#000000" stroke-linecap="butt" stroke-linejoin="miter" stroke-width="0.5"/>
<path d="M2459.18 2366.66L3240.77 2366.66L2850.85 1675.33L2459.18 2366.66Z" fill="#000000" fill-rule="nonzero" opacity="1" stroke="none"/>
<path d="M3650.78 1656.85L2869.05 1656.85L3259.11 2348.17L3650.78 1656.85Z" fill="none" opacity="1" stroke="#000000" stroke-linecap="butt" stroke-linejoin="miter" stroke-width="0.5"/>
<path d="M3277.16 2366.66L4058.74 2366.66L3668.83 1675.33L3277.16 2366.66Z" fill="#000000" fill-rule="nonzero" opacity="1" stroke="none"/>
<path d="M2053.42 1639.68L2835 1639.68L2445.09 948.207L2053.42 1639.68Z" fill="#000000" fill-rule="nonzero" opacity="1" stroke="none"/>
<path d="M3245.02 929.866L2463.43 929.866L2853.35 1621.19L3245.02 929.866Z" fill="none" opacity="1" stroke="#000000" stroke-linecap="butt" stroke-linejoin="miter" stroke-width="0.5"/>
<path d="M2867.73 1637.19L3649.32 1637.19L3259.4 945.716L2867.73 1637.19Z" fill="#000000" fill-rule="nonzero" opacity="1" stroke="none"/>
<path d="M2464.02 912.258L3245.6 912.258L2855.69 220.934L2464.02 912.258Z" fill="#000000" fill-rule="nonzero" opacity="1" stroke="none"/>
</g>
</svg>
