<?xml version="1.0" encoding="UTF-8" standalone="no"?>
<!DOCTYPE svg PUBLIC "-//W3C//DTD SVG 1.1//EN" "http://www.w3.org/Graphics/SVG/1.1/DTD/svg11.dtd">
<!-- Created with Vectornator (http://vectornator.io/) -->
<svg height="100%" stroke-miterlimit="10" style="fill-rule:nonzero;clip-rule:evenodd;stroke-linecap:round;stroke-linejoin:round;" version="1.1" viewBox="0 0 1062.42 931.121" width="100%" xml:space="preserve" xmlns="http://www.w3.org/2000/svg" xmlns:xlink="http://www.w3.org/1999/xlink">
<defs/>
<g id="Pyramide">
<path d="M17.9163 928.253L352.891 928.253L185.78 631.901L17.9163 928.253Z" fill="#000000" fill-rule="nonzero" opacity="1" stroke="none"/>
<path d="M528.615 624.04L193.641 624.04L360.751 920.33L528.615 624.04Z" fill="none" opacity="1" stroke="#000000" stroke-linecap="butt" stroke-linejoin="miter" stroke-width="0.5"/>
<path d="M367.356 928.63L702.33 928.63L535.22 632.34L367.356 928.63Z" fill="#000000" fill-rule="nonzero" opacity="1" stroke="none"/>
<path d="M878.055 624.417L543.017 624.417L710.191 920.707L878.055 624.417Z" fill="none" opacity="1" stroke="#000000" stroke-linecap="butt" stroke-linejoin="miter" stroke-width="0.5"/>
<path d="M717.926 928.63L1052.9 928.63L885.79 632.34L717.926 928.63Z" fill="#000000" fill-rule="nonzero" opacity="1" stroke="none"/>
<path d="M193.452 617.059L528.427 617.059L361.316 320.706L193.452 617.059Z" fill="#000000" fill-rule="nonzero" opacity="1" stroke="none"/>
<path d="M704.151 312.846L369.177 312.846L536.287 609.136L704.151 312.846Z" fill="none" opacity="1" stroke="#000000" stroke-linecap="butt" stroke-linejoin="miter" stroke-width="0.5"/>
<path d="M542.452 615.991L877.427 615.991L710.316 319.639L542.452 615.991Z" fill="#000000" fill-rule="nonzero" opacity="1" stroke="none"/>
<path d="M369.428 305.299L704.403 305.299L537.292 9.00967L369.428 305.299Z" fill="#000000" fill-rule="nonzero" opacity="1" stroke="none"/>
</g>
</svg>
