<?xml version="1.0" encoding="UTF-8" standalone="no"?>
<!DOCTYPE svg PUBLIC "-//W3C//DTD SVG 1.1//EN" "http://www.w3.org/Graphics/SVG/1.1/DTD/svg11.dtd">
<!-- Created with Vectornator (http://vectornator.io/) -->
<svg height="100%" stroke-miterlimit="10" style="fill-rule:nonzero;clip-rule:evenodd;stroke-linecap:round;stroke-linejoin:round;" version="1.1" viewBox="0 0 1841.58 1617.07" width="100%" xml:space="preserve" xmlns="http://www.w3.org/2000/svg" xmlns:xlink="http://www.w3.org/1999/xlink">
<defs/>
<g id="Pyramide">
<path d="M17.9163 1613.02L602.423 1613.02L310.827 1095.91L17.9163 1613.02Z" fill="#000000" fill-rule="nonzero" opacity="1" stroke="none"/>
<path d="M909.05 1082.19L324.543 1082.19L616.139 1599.2L909.05 1082.19Z" fill="none" opacity="1" stroke="#000000" stroke-linecap="butt" stroke-linejoin="miter" stroke-width="0.5"/>
<path d="M627.663 1613.68L1212.17 1613.68L920.574 1096.68L627.663 1613.68Z" fill="#000000" fill-rule="nonzero" opacity="1" stroke="none"/>
<path d="M1518.8 1082.85L934.181 1082.85L1225.89 1599.86L1518.8 1082.85Z" fill="none" opacity="1" stroke="#000000" stroke-linecap="butt" stroke-linejoin="miter" stroke-width="0.5"/>
<path d="M1239.38 1613.68L1823.89 1613.68L1532.29 1096.68L1239.38 1613.68Z" fill="#000000" fill-rule="nonzero" opacity="1" stroke="none"/>
<path d="M324.214 1070.01L908.721 1070.01L617.125 552.898L324.214 1070.01Z" fill="#000000" fill-rule="nonzero" opacity="1" stroke="none"/>
<path d="M1215.35 539.182L630.841 539.182L922.437 1056.19L1215.35 539.182Z" fill="none" opacity="1" stroke="#000000" stroke-linecap="butt" stroke-linejoin="miter" stroke-width="0.5"/>
<path d="M933.194 1068.15L1517.7 1068.15L1226.11 551.035L933.194 1068.15Z" fill="#000000" fill-rule="nonzero" opacity="1" stroke="none"/>
<path d="M631.279 526.014L1215.79 526.014L924.19 9.00967L631.279 526.014Z" fill="#000000" fill-rule="nonzero" opacity="1" stroke="none"/>
</g>
</svg>
