<?xml version="1.0" encoding="UTF-8" standalone="no"?>
<!DOCTYPE svg PUBLIC "-//W3C//DTD SVG 1.1//EN" "http://www.w3.org/Graphics/SVG/1.1/DTD/svg11.dtd">
<!-- Created with Vectornator (http://vectornator.io/) -->
<svg height="100%" stroke-miterlimit="10" style="fill-rule:nonzero;clip-rule:evenodd;stroke-linecap:round;stroke-linejoin:round;" version="1.1" viewBox="0 0 5584.91 2628.03" width="100%" xml:space="preserve" xmlns="http://www.w3.org/2000/svg" xmlns:xlink="http://www.w3.org/1999/xlink">
<defs/>
<g id="Pyramide">
<path d="M2583.85 2365.78L3365.43 2365.78L2975.52 1674.31L2583.85 2365.78Z" fill="#000000" fill-rule="nonzero" opacity="1" stroke="none"/>
<path d="M3775.44 1655.97L2993.86 1655.97L3383.77 2347.29L3775.44 1655.97Z" fill="none" opacity="1" stroke="#000000" stroke-linecap="butt" stroke-linejoin="miter" stroke-width="0.5"/>
<path d="M3399.18 2366.66L4180.77 2366.66L3790.85 1675.33L3399.18 2366.66Z" fill="#000000" fill-rule="nonzero" opacity="1" stroke="none"/>
<path d="M4590.78 1656.85L3809.05 1656.85L4199.11 2348.17L4590.78 1656.85Z" fill="none" opacity="1" stroke="#000000" stroke-linecap="butt" stroke-linejoin="miter" stroke-width="0.5"/>
<path d="M4217.16 2366.66L4998.74 2366.66L4608.83 1675.33L4217.16 2366.66Z" fill="#000000" fill-rule="nonzero" opacity="1" stroke="none"/>
<path d="M2993.42 1639.68L3775 1639.68L3385.09 948.207L2993.42 1639.68Z" fill="#000000" fill-rule="nonzero" opacity="1" stroke="none"/>
<path d="M4185.02 929.866L3403.43 929.866L3793.35 1621.19L4185.02 929.866Z" fill="none" opacity="1" stroke="#000000" stroke-linecap="butt" stroke-linejoin="miter" stroke-width="0.5"/>
<path d="M3807.73 1637.19L4589.32 1637.19L4199.4 945.716L3807.73 1637.19Z" fill="#000000" fill-rule="nonzero" opacity="1" stroke="none"/>
<path d="M3404.02 912.258L4185.6 912.258L3795.69 220.934L3404.02 912.258Z" fill="#000000" fill-rule="nonzero" opacity="1" stroke="none"/>
</g>
</svg>
