<?xml version="1.0" encoding="UTF-8" standalone="no"?>
<!DOCTYPE svg PUBLIC "-//W3C//DTD SVG 1.1//EN" "http://www.w3.org/Graphics/SVG/1.1/DTD/svg11.dtd">
<!-- Created with Vectornator (http://vectornator.io/) -->
<svg height="100%" stroke-miterlimit="10" style="fill-rule:nonzero;clip-rule:evenodd;stroke-linecap:round;stroke-linejoin:round;" version="1.1" viewBox="0 0 4266.36 2628.03" width="100%" xml:space="preserve" xmlns="http://www.w3.org/2000/svg" xmlns:xlink="http://www.w3.org/1999/xlink">
<defs/>
<g id="Pyramide">
<path d="M2192.36 2093.02L2776.87 2093.02L2485.27 1575.91L2192.36 2093.02Z" fill="#000000" fill-rule="nonzero" opacity="1" stroke="none"/>
<path d="M3083.5 1562.19L2498.99 1562.19L2790.58 2079.2L3083.5 1562.19Z" fill="none" opacity="1" stroke="#000000" stroke-linecap="butt" stroke-linejoin="miter" stroke-width="0.5"/>
<path d="M2802.11 2093.68L3386.62 2093.68L3095.02 1576.68L2802.11 2093.68Z" fill="#000000" fill-rule="nonzero" opacity="1" stroke="none"/>
<path d="M3693.24 1562.85L3108.63 1562.85L3400.33 2079.86L3693.24 1562.85Z" fill="none" opacity="1" stroke="#000000" stroke-linecap="butt" stroke-linejoin="miter" stroke-width="0.5"/>
<path d="M3413.83 2093.68L3998.34 2093.68L3706.74 1576.68L3413.83 2093.68Z" fill="#000000" fill-rule="nonzero" opacity="1" stroke="none"/>
<path d="M2498.66 1550.01L3083.17 1550.01L2791.57 1032.9L2498.66 1550.01Z" fill="#000000" fill-rule="nonzero" opacity="1" stroke="none"/>
<path d="M3389.79 1019.18L2805.29 1019.18L3096.88 1536.19L3389.79 1019.18Z" fill="none" opacity="1" stroke="#000000" stroke-linecap="butt" stroke-linejoin="miter" stroke-width="0.5"/>
<path d="M3107.64 1548.15L3692.15 1548.15L3400.55 1031.04L3107.64 1548.15Z" fill="#000000" fill-rule="nonzero" opacity="1" stroke="none"/>
<path d="M2805.73 1006.01L3390.23 1006.01L3098.64 489.01L2805.73 1006.01Z" fill="#000000" fill-rule="nonzero" opacity="1" stroke="none"/>
</g>
</svg>
